<mxfile host="app.diagrams.net" modified="2020-09-14T06:32:07.186Z" agent="5.0 (Windows NT 10.0; Win64; x64) AppleWebKit/537.36 (KHTML, like Gecko) Chrome/85.0.4183.102 Safari/537.36 Edg/85.0.564.51" etag="PyvmwYpv4o8huUure2EK" version="13.6.10" type="github">
  <diagram id="mWfr_nqhaHZg0_ytaGI5" name="Page-1">
    <mxGraphModel dx="2044" dy="938" grid="1" gridSize="10" guides="1" tooltips="1" connect="1" arrows="1" fold="1" page="1" pageScale="1" pageWidth="1100" pageHeight="850" math="0" shadow="0">
      <root>
        <mxCell id="0" />
        <mxCell id="1" parent="0" />
        <mxCell id="QgkLmkX5L7IMBWbJKDq_-6" value="Availability Zone" style="fillColor=none;strokeColor=#147EBA;dashed=1;verticalAlign=top;fontStyle=0;fontColor=#147EBA;" vertex="1" parent="1">
          <mxGeometry x="595" y="444" width="240" height="320" as="geometry" />
        </mxCell>
        <mxCell id="QgkLmkX5L7IMBWbJKDq_-1" value="" style="outlineConnect=0;fontColor=#232F3E;gradientColor=none;fillColor=#5A30B5;strokeColor=none;dashed=0;verticalLabelPosition=bottom;verticalAlign=top;align=center;html=1;fontSize=12;fontStyle=0;aspect=fixed;pointerEvents=1;shape=mxgraph.aws4.application_load_balancer;" vertex="1" parent="1">
          <mxGeometry x="265" y="386" width="78" height="78" as="geometry" />
        </mxCell>
        <mxCell id="QgkLmkX5L7IMBWbJKDq_-9" value="Private subnet" style="points=[[0,0],[0.25,0],[0.5,0],[0.75,0],[1,0],[1,0.25],[1,0.5],[1,0.75],[1,1],[0.75,1],[0.5,1],[0.25,1],[0,1],[0,0.75],[0,0.5],[0,0.25]];outlineConnect=0;gradientColor=none;html=1;whiteSpace=wrap;fontSize=12;fontStyle=0;shape=mxgraph.aws4.group;grIcon=mxgraph.aws4.group_security_group;grStroke=0;strokeColor=#147EBA;fillColor=#E6F2F8;verticalAlign=top;align=left;spacingLeft=30;fontColor=#147EBA;dashed=0;" vertex="1" parent="1">
          <mxGeometry x="635" y="484" width="160" height="240" as="geometry" />
        </mxCell>
        <mxCell id="QgkLmkX5L7IMBWbJKDq_-10" value="Private subnet" style="points=[[0,0],[0.25,0],[0.5,0],[0.75,0],[1,0],[1,0.25],[1,0.5],[1,0.75],[1,1],[0.75,1],[0.5,1],[0.25,1],[0,1],[0,0.75],[0,0.5],[0,0.25]];outlineConnect=0;gradientColor=none;html=1;whiteSpace=wrap;fontSize=12;fontStyle=0;shape=mxgraph.aws4.group;grIcon=mxgraph.aws4.group_security_group;grStroke=0;strokeColor=#147EBA;fillColor=#E6F2F8;verticalAlign=top;align=left;spacingLeft=30;fontColor=#147EBA;dashed=0;" vertex="1" parent="1">
          <mxGeometry x="635" y="126" width="160" height="240" as="geometry" />
        </mxCell>
        <mxCell id="QgkLmkX5L7IMBWbJKDq_-7" value="Availability Zone" style="fillColor=none;strokeColor=#147EBA;dashed=1;verticalAlign=top;fontStyle=0;fontColor=#147EBA;" vertex="1" parent="1">
          <mxGeometry x="595" y="86" width="240" height="320" as="geometry" />
        </mxCell>
        <mxCell id="QgkLmkX5L7IMBWbJKDq_-2" value="SVC_A" style="outlineConnect=0;fontColor=#232F3E;gradientColor=none;fillColor=#D86613;strokeColor=none;dashed=0;verticalLabelPosition=bottom;verticalAlign=top;align=center;html=1;fontSize=12;fontStyle=0;aspect=fixed;pointerEvents=1;shape=mxgraph.aws4.instance2;" vertex="1" parent="1">
          <mxGeometry x="691" y="166" width="48" height="48" as="geometry" />
        </mxCell>
        <mxCell id="QgkLmkX5L7IMBWbJKDq_-3" value="SVC_B" style="outlineConnect=0;fontColor=#232F3E;gradientColor=none;fillColor=#D86613;strokeColor=none;dashed=0;verticalLabelPosition=bottom;verticalAlign=top;align=center;html=1;fontSize=12;fontStyle=0;aspect=fixed;pointerEvents=1;shape=mxgraph.aws4.instance2;" vertex="1" parent="1">
          <mxGeometry x="691" y="276" width="48" height="48" as="geometry" />
        </mxCell>
        <mxCell id="QgkLmkX5L7IMBWbJKDq_-4" value="SVC_A" style="outlineConnect=0;fontColor=#232F3E;gradientColor=none;fillColor=#D86613;strokeColor=none;dashed=0;verticalLabelPosition=bottom;verticalAlign=top;align=center;html=1;fontSize=12;fontStyle=0;aspect=fixed;pointerEvents=1;shape=mxgraph.aws4.instance2;" vertex="1" parent="1">
          <mxGeometry x="691" y="526" width="48" height="48" as="geometry" />
        </mxCell>
        <mxCell id="QgkLmkX5L7IMBWbJKDq_-5" value="SVC_B" style="outlineConnect=0;fontColor=#232F3E;gradientColor=none;fillColor=#D86613;strokeColor=none;dashed=0;verticalLabelPosition=bottom;verticalAlign=top;align=center;html=1;fontSize=12;fontStyle=0;aspect=fixed;pointerEvents=1;shape=mxgraph.aws4.instance2;" vertex="1" parent="1">
          <mxGeometry x="691" y="626" width="48" height="48" as="geometry" />
        </mxCell>
        <mxCell id="QgkLmkX5L7IMBWbJKDq_-14" value="Target Group: SVC_A" style="rounded=0;whiteSpace=wrap;html=1;shadow=0;strokeColor=#3333FF;" vertex="1" parent="1">
          <mxGeometry x="355" y="324" width="160" height="40" as="geometry" />
        </mxCell>
        <mxCell id="QgkLmkX5L7IMBWbJKDq_-16" value="Target Group: SVC_B" style="rounded=0;whiteSpace=wrap;html=1;strokeColor=#97D077;shadow=0;" vertex="1" parent="1">
          <mxGeometry x="355" y="486" width="160" height="40" as="geometry" />
        </mxCell>
        <mxCell id="QgkLmkX5L7IMBWbJKDq_-20" value="" style="edgeStyle=orthogonalEdgeStyle;html=1;endArrow=open;elbow=vertical;startArrow=none;endFill=0;strokeColor=#545B64;rounded=0;entryX=0.5;entryY=1;entryDx=0;entryDy=0;" edge="1" parent="1" source="QgkLmkX5L7IMBWbJKDq_-1" target="QgkLmkX5L7IMBWbJKDq_-14">
          <mxGeometry width="100" relative="1" as="geometry">
            <mxPoint x="354" y="286" as="sourcePoint" />
            <mxPoint x="354" y="286" as="targetPoint" />
          </mxGeometry>
        </mxCell>
        <mxCell id="QgkLmkX5L7IMBWbJKDq_-21" value="" style="edgeStyle=orthogonalEdgeStyle;html=1;endArrow=open;elbow=vertical;startArrow=none;endFill=0;strokeColor=#545B64;rounded=0;" edge="1" parent="1" source="QgkLmkX5L7IMBWbJKDq_-1" target="QgkLmkX5L7IMBWbJKDq_-16">
          <mxGeometry width="100" relative="1" as="geometry">
            <mxPoint x="425" y="436" as="sourcePoint" />
            <mxPoint x="475" y="476" as="targetPoint" />
          </mxGeometry>
        </mxCell>
        <mxCell id="QgkLmkX5L7IMBWbJKDq_-23" value="" style="edgeStyle=orthogonalEdgeStyle;html=1;endArrow=block;elbow=vertical;startArrow=none;endFill=1;strokeColor=#0000FF;rounded=0;exitX=1;exitY=0.5;exitDx=0;exitDy=0;" edge="1" parent="1" source="QgkLmkX5L7IMBWbJKDq_-14" target="QgkLmkX5L7IMBWbJKDq_-2">
          <mxGeometry width="100" relative="1" as="geometry">
            <mxPoint x="465" y="266" as="sourcePoint" />
            <mxPoint x="565" y="266" as="targetPoint" />
            <Array as="points">
              <mxPoint x="515" y="346" />
              <mxPoint x="545" y="346" />
              <mxPoint x="545" y="190" />
            </Array>
          </mxGeometry>
        </mxCell>
        <mxCell id="QgkLmkX5L7IMBWbJKDq_-24" value="" style="edgeStyle=orthogonalEdgeStyle;html=1;endArrow=block;elbow=vertical;startArrow=none;endFill=1;strokeColor=#0000FF;rounded=0;exitX=1;exitY=0.5;exitDx=0;exitDy=0;" edge="1" parent="1" source="QgkLmkX5L7IMBWbJKDq_-14" target="QgkLmkX5L7IMBWbJKDq_-4">
          <mxGeometry width="100" relative="1" as="geometry">
            <mxPoint x="465" y="245.5" as="sourcePoint" />
            <mxPoint x="565" y="245.5" as="targetPoint" />
            <Array as="points">
              <mxPoint x="515" y="346" />
              <mxPoint x="545" y="346" />
              <mxPoint x="545" y="550" />
            </Array>
          </mxGeometry>
        </mxCell>
        <mxCell id="QgkLmkX5L7IMBWbJKDq_-25" value="" style="edgeStyle=orthogonalEdgeStyle;html=1;endArrow=block;elbow=vertical;startArrow=none;endFill=1;strokeColor=#97D077;rounded=0;exitX=1;exitY=0.5;exitDx=0;exitDy=0;shadow=0;" edge="1" parent="1" source="QgkLmkX5L7IMBWbJKDq_-16" target="QgkLmkX5L7IMBWbJKDq_-5">
          <mxGeometry width="100" relative="1" as="geometry">
            <mxPoint x="430" y="603.5" as="sourcePoint" />
            <mxPoint x="530" y="603.5" as="targetPoint" />
            <Array as="points">
              <mxPoint x="575" y="506" />
              <mxPoint x="575" y="650" />
            </Array>
          </mxGeometry>
        </mxCell>
        <mxCell id="QgkLmkX5L7IMBWbJKDq_-26" value="" style="edgeStyle=orthogonalEdgeStyle;html=1;endArrow=block;elbow=vertical;startArrow=none;endFill=1;strokeColor=#97D077;rounded=0;exitX=1;exitY=0.5;exitDx=0;exitDy=0;shadow=0;" edge="1" parent="1" source="QgkLmkX5L7IMBWbJKDq_-16" target="QgkLmkX5L7IMBWbJKDq_-3">
          <mxGeometry width="100" relative="1" as="geometry">
            <mxPoint x="293" y="549.5" as="sourcePoint" />
            <mxPoint x="393" y="549.5" as="targetPoint" />
            <Array as="points">
              <mxPoint x="575" y="506" />
              <mxPoint x="575" y="300" />
            </Array>
          </mxGeometry>
        </mxCell>
      </root>
    </mxGraphModel>
  </diagram>
</mxfile>
